<?xml version="1.0" ?><svg viewBox="0 0 64 64" xmlns="http://www.w3.org/2000/svg"><defs><style>.cls-1{fill:#d6d6d4;}.cls-2{fill:#4d5e78;}.cls-3{fill:#fff;}.cls-4{fill:#f35244;}</style></defs><g data-name="filled outline" id="filled_outline"><rect class="cls-1" height="41" width="50" x="7" y="16"/><rect class="cls-2" height="8" width="60" x="2" y="10"/><circle class="cls-3" cx="32" cy="14" r="12"/><polygon class="cls-4" points="35 11 35 6 29 6 29 11 24 11 24 17 29 17 29 22 35 22 35 17 40 17 40 11 35 11"/><path class="cls-4" d="M32,37a9.01,9.01,0,0,0-9,9V57H41V46A9.01,9.01,0,0,0,32,37Z"/><rect class="cls-2" height="7" width="60" x="2" y="55"/><rect class="cls-4" height="2" width="26" x="19" y="28"/><rect class="cls-4" height="2" width="26" x="19" y="32"/><path d="M29,22h6V17h5V11H35V6H29v5H24v6h5Zm-3-7V13h5V8h2v5h5v2H33v5H31V15Z"/><path d="M62,18V10H43.3a11.98,11.98,0,0,0-22.6,0H2v8H7V55H2v7H62V55H57V18Zm-2-6v4H43.8193A11.976,11.976,0,0,0,44,14a11.976,11.976,0,0,0-.1807-2ZM32,4A10,10,0,1,1,22,14,10.0111,10.0111,0,0,1,32,4ZM4,16V12H20.1807A11.976,11.976,0,0,0,20,14a11.976,11.976,0,0,0,.1807,2H4ZM60,57v3H4V57H60ZM39,55H25V46a7,7,0,0,1,14,0Zm16,0H41V46a9,9,0,0,0-18,0v9H9V18H20.7a11.98,11.98,0,0,0,22.6,0H55Z"/><rect height="2" width="26" x="19" y="28"/><rect height="2" width="26" x="19" y="32"/></g></svg>